<?xml version="1.0" encoding="UTF-8" standalone="no"?>
<!-- Created with Inkscape (http://www.inkscape.org/) -->
<svg xmlns:rdf="http://www.w3.org/1999/02/22-rdf-syntax-ns#" xmlns="http://www.w3.org/2000/svg" version="1.1" xmlns:cc="http://creativecommons.org/ns#" xmlns:dc="http://purl.org/dc/elements/1.1/" viewBox="0 0 31.27 31.3">
 <metadata>
  <rdf:RDF>
   <cc:Work rdf:about="">
    <dc:format>image/svg+xml</dc:format>
    <dc:type rdf:resource="http://purl.org/dc/dcmitype/StillImage"/>
    <dc:title/>
   </cc:Work>
  </rdf:RDF>
 </metadata>
 <g transform="translate(-359.36427,-421.72645)">
  <g stroke-linejoin="round" fill-rule="nonzero" stroke-dashoffset="0" stroke="#0e17fd" stroke-linecap="round" stroke-dasharray="none" stroke-miterlimit="4" stroke-width="1.25666654" fill="#00baaa">
   <path class="back-right" d="m345.8,453.1c-2.719,2.719-6.407,4.247-10.25,4.247v-14.5z" transform="matrix(1.034483,0,0,1.0344828,27.930953,-20.771128)"/>
   <path class="back-left" d="m345.8,453.1c-2.719,2.719-6.407,4.247-10.25,4.247v-14.5z" transform="matrix(-1.034483,0,0,1.0344828,722.06905,-20.771128)"/>
   <path class="right" d="m345.8,432.6c5.663,5.663,5.663,14.84,0,20.51l-10.3-10.2z" transform="matrix(1.034483,0,0,1.0344828,27.930954,-20.771128)"/>
   <path class="left" d="m345.8,432.6c5.663,5.663,5.663,14.84,0,20.51l-10.3-10.2z" transform="matrix(-1.034483,0,0,-1.0344828,722.06905,895.49549)"/>
   <path class="forward" d="m345.8,432.6c5.663,5.663,5.663,14.84,0,20.51l-10.3-10.2z" transform="matrix(0,-1.034483,1.0344828,0,-83.133311,784.43123)"/>
  </g>
  <text style="letter-spacing:0px;text-anchor:middle;word-spacing:0px;text-align:center;" font-weight="normal" xml:space="preserve" font-size="3.17003155px" font-style="normal" font-stretch="normal" font-variant="normal" y="428.36218" x="375" font-family="Serif" line-height="125%" fill="#000000"><tspan x="375" y="428.36218">Look</tspan><tspan x="375" y="430.86218">Forward</tspan></text>
  <text style="letter-spacing:0px;text-anchor:middle;word-spacing:0px;text-align:center;" font-weight="normal" xml:space="preserve" font-size="3.17003155px" font-style="normal" font-stretch="normal" font-variant="normal" y="438.36218" x="384" font-family="Serif" line-height="125%" fill="#000000"><tspan x="384" y="437.36218">Look</tspan><tspan x="384" y="440.36218">Right</tspan></text>
  <text style="letter-spacing:0px;text-anchor:middle;word-spacing:0px;text-align:center;" font-weight="normal" xml:space="preserve" font-size="3.17003155px" font-style="normal" font-stretch="normal" font-variant="normal" y="438.36218" x="365" font-family="Serif" line-height="125%" fill="#000000"><tspan x="365" y="437.36218">Look</tspan><tspan x="365" y="440.36218">Left</tspan></text>
  <text style="letter-spacing:0px;text-anchor:middle;word-spacing:0px;text-align:center;" font-weight="normal" xml:space="preserve" font-size="2.3020618px" font-style="normal" font-stretch="normal" font-variant="normal" y="446.11218" x="370.875" font-family="Serif" line-height="125%" fill="#000000"><tspan x="370.875" y="446.11218">(L)</tspan><tspan x="370.875" y="448.98975">Back</tspan></text>
  <text style="letter-spacing:0px;text-anchor:middle;word-spacing:0px;text-align:center;" font-weight="normal" xml:space="preserve" font-size="2.3020618px" font-style="normal" font-stretch="normal" font-variant="normal" y="446.17468" x="379.09375" font-family="Serif" line-height="125%" fill="#000000"><tspan x="379.09375" y="446.17468">(R)</tspan><tspan x="379.09375" y="449.05225">Back</tspan></text>
 </g>
</svg>
